<svg width="154" height="40" viewBox="0 0 154 40" fill="none" xmlns="http://www.w3.org/2000/svg">
<g clip-path="url(#clip0_1733_55454)">
<g clip-path="url(#clip1_1733_55454)">
<path d="M132.039 21.3126C132.154 21.9998 132.482 22.6336 132.976 23.1251C134.778 24.9627 137.512 25.363 139.861 24.1099C140.414 23.7904 140.949 23.4407 141.464 23.0622C141.753 22.8527 141.917 22.8527 142.181 23.0853L144.758 25.3315C145.177 25.6877 145.177 25.9057 144.819 26.3164C143.121 28.221 141.047 29.5202 138.516 29.9057C134.895 30.461 131.616 29.6375 128.904 27.0749C127.255 25.5138 126.319 23.5567 125.99 21.3105C125.654 19.0328 125.877 16.8243 126.887 14.7436C128.29 11.8562 130.449 9.78178 133.644 9.06097C137.064 8.28569 140.24 8.93735 142.939 11.2716C144.664 12.7635 145.613 14.7269 146.032 16.948C146.234 18.1387 146.296 19.349 146.216 20.5541C146.189 21.1492 146.007 21.321 145.414 21.321H132.039V21.3126ZM140.249 17.499C140.077 15.8227 138.411 13.9369 136.144 13.9872C133.839 14.0438 132.316 16.0407 132.219 17.499H140.249Z" fill="#12362A"/>
<path d="M72.2239 19.383C72.2239 14.4115 75.5033 10.1202 80.3383 9.05155C84.5373 8.12569 88.1063 9.32868 90.8692 12.7046C90.9826 12.8453 91.0981 12.9838 91.203 13.1245C91.2524 13.1901 91.2874 13.2655 91.3056 13.3456C91.3237 13.4258 91.3247 13.5088 91.3084 13.5894C91.2922 13.6699 91.259 13.7461 91.2112 13.8129C91.1633 13.8797 91.1019 13.9356 91.0309 13.9769C89.6103 14.8754 88.1868 15.7726 86.7606 16.6684C86.3701 16.914 86.1916 16.8783 85.8809 16.4962C85.3052 15.8008 84.5137 15.3176 83.6321 15.1232C82.7504 14.9289 81.8291 15.0345 81.0144 15.4234C77.945 16.998 77.7476 20.756 79.994 22.7379C81.7555 24.2894 84.2559 24.1488 85.7927 22.3768C86.1643 21.9569 86.3659 21.9212 86.8425 22.2341L90.9196 24.8605C91.3227 25.1208 91.392 25.4504 91.1065 25.8325C89.3324 28.207 86.9852 29.6283 84.0334 29.9853C80.8569 30.3674 78.0646 29.4646 75.7027 27.3168C73.6635 25.506 72.4216 22.9633 72.247 20.2417C72.247 20.1283 72.2239 20.0149 72.2197 19.8995C72.2197 19.7273 72.2197 19.5551 72.2197 19.383" fill="#12362A"/>
<path d="M115.292 17.8161C115.637 16.8396 115.96 15.9274 116.281 15.0131L118.266 9.38572C118.444 8.88465 118.628 8.75403 119.161 8.75403H124.795C125.307 8.75403 125.448 8.96816 125.245 9.43283L116.553 29.285C116.455 29.528 116.283 29.7343 116.062 29.8749C115.841 30.0154 115.581 30.0832 115.32 30.0687C114.75 30.0815 114.386 29.8032 114.155 29.2871C111.187 22.6919 108.218 16.0959 105.249 9.49921C105.17 9.34163 105.149 9.16092 105.191 8.98958C105.234 8.92283 105.292 8.86724 105.361 8.82739C105.429 8.78755 105.506 8.7646 105.585 8.76045C107.547 8.74547 109.508 8.74761 111.472 8.76045C111.887 8.76045 112.086 8.93176 112.238 9.35574L115.174 17.5206C115.202 17.5977 115.234 17.6726 115.294 17.8182" fill="#12362A"/>
<path d="M68.3571 19.4179V29.3757C68.3571 29.9234 68.2142 30.0706 67.6687 30.0706H62.5837C62.101 30.0706 61.8823 29.8541 61.8823 29.3779C61.8823 22.7235 61.8823 16.069 61.8823 9.41458C61.8823 8.94916 62.0793 8.75 62.5317 8.75C64.2635 8.75 66.0011 8.75 67.7445 8.75C68.2034 8.75 68.3463 8.89504 68.3463 9.36046V19.4179" fill="#12362A"/>
<path d="M101.953 19.4179V29.3757C101.953 29.9234 101.81 30.0706 101.265 30.0706H96.1799C95.6972 30.0706 95.4785 29.8541 95.4785 29.3779C95.4785 22.7235 95.4785 16.069 95.4785 9.41458C95.4785 8.94916 95.6755 8.75 96.1279 8.75C97.8597 8.75 99.5973 8.75 101.341 8.75C101.8 8.75 101.942 8.89504 101.942 9.36046V19.4179" fill="#12362A"/>
<path d="M42.5 19.5623V9.72643C42.5 9.23698 42.6341 9.10078 43.1171 9.10078C44.1173 9.10078 45.1175 9.10078 46.1177 9.10078C47.1179 9.10078 48.0627 9.42425 48.9863 9.78176C49.0664 9.82048 49.1553 9.83714 49.244 9.83003C49.3326 9.82293 49.4178 9.79231 49.4907 9.74133C50.3733 9.2149 51.3648 8.89752 52.3891 8.8135C53.7255 8.67822 55.075 8.75942 56.3855 9.05397C56.909 9.16675 57.0452 9.37956 56.975 9.90519C56.758 11.4856 56.5451 13.0668 56.3366 14.6486C56.2706 15.1359 56.0855 15.2658 55.562 15.1934C54.2748 15.0127 52.9632 15.2358 51.8081 15.8318C50.3781 16.5532 49.5588 17.7875 49.2034 19.3112C49.0264 20.0627 48.9315 20.8311 48.9203 21.6031C48.8842 24.1738 48.9076 26.7466 48.9054 29.3173C48.9083 29.4339 48.9026 29.5505 48.8884 29.6663C48.8819 29.7585 48.8439 29.8456 48.7807 29.913C48.7176 29.9805 48.6331 30.0241 48.5415 30.0366C48.4272 30.0584 48.3111 30.0698 48.1947 30.0706H43.2001C42.6447 30.0706 42.5 29.928 42.5 29.3833V19.5623Z" fill="#12362A"/>
</g>
<path d="M19.8224 30.3634C20.3453 29.7181 20.8482 29.1083 21.3397 28.4886C22.1869 27.4192 23.0288 26.3455 23.8656 25.2675C23.916 25.193 23.9861 25.1339 24.0681 25.0967C24.15 25.0595 24.2407 25.0456 24.33 25.0566C26.3487 25.1364 28.3688 25.2077 30.389 25.2817C30.8491 25.2974 31.1013 25.4612 31.1967 25.8117C31.2922 26.1408 31.1668 26.4257 30.8107 26.6736L13.7535 38.548C13.393 38.7987 13.0839 38.8144 12.8089 38.6021C12.534 38.3898 12.4542 38.0821 12.5967 37.6533C13.3375 35.4066 14.074 33.1586 14.8248 30.9162C14.8703 30.8202 14.8785 30.7107 14.8477 30.609C14.8169 30.5074 14.7493 30.4208 14.6581 30.3663C12.8089 28.8875 10.9626 27.3992 9.11914 25.9015C8.77865 25.6265 8.6775 25.3401 8.80002 25.0139C8.92254 24.6877 9.17755 24.5352 9.61918 24.5509C11.6578 24.6207 13.6965 24.6934 15.7351 24.7589C15.8156 24.7569 15.895 24.7768 15.965 24.8165C16.035 24.8561 16.0929 24.914 16.1326 24.984C17.2894 26.6755 18.4458 28.3642 19.6016 30.05C19.6643 30.1412 19.7284 30.2309 19.8224 30.3634Z" fill="#BABABA"/>
<path d="M20.0843 26.1354C19.8663 25.8391 19.6697 25.5741 19.476 25.3077C17.4359 22.5154 15.3858 19.7317 13.3643 16.9266C12.5252 15.7626 11.8285 14.5047 11.5194 13.0914C10.8996 10.2521 11.5906 7.72197 13.4626 5.52376C14.8231 3.89825 16.7497 2.84944 18.8534 2.58901C21.078 2.2699 23.3403 2.81584 25.1745 4.11444C27.0087 5.41305 28.2752 7.36546 28.7133 9.56973C29.1777 11.9076 28.6663 14.0445 27.3969 16.0034C26.4225 17.5021 25.3554 18.941 24.3083 20.3898C22.9677 22.2419 21.6015 24.0797 20.2538 25.9231C20.2096 25.9815 20.1626 26.0371 20.0843 26.1354Z" fill="#509242"/>
<path d="M20.0745 27.9406C20.576 27.2796 21.0589 26.6585 21.5305 26.0159C22.3425 24.9209 23.1498 23.8206 23.9524 22.7151C24.0005 22.6391 24.0687 22.5779 24.1493 22.5382C24.23 22.4985 24.3201 22.4818 24.4097 22.49C26.4312 22.5042 28.4514 22.5085 30.4729 22.517C30.9331 22.517 31.1852 22.6737 31.2978 23.0214C31.4103 23.369 31.2878 23.6354 30.9402 23.8961C25.3851 28.0342 19.829 32.1728 14.272 36.3118C13.9201 36.5739 13.6109 36.5967 13.3303 36.3973C13.0496 36.1978 12.9556 35.8944 13.0824 35.4613C13.7491 33.1918 14.413 30.921 15.0911 28.6558C15.134 28.5583 15.1389 28.4483 15.1049 28.3474C15.0709 28.2465 15.0005 28.1619 14.9073 28.1102C13.0078 26.6912 11.115 25.2666 9.22874 23.8362C8.88255 23.5656 8.77286 23.2821 8.88398 22.9516C8.9951 22.621 9.24441 22.4615 9.68747 22.4629C11.7276 22.4629 13.7676 22.4743 15.8134 22.4714C15.8939 22.4669 15.9742 22.4843 16.0457 22.5217C16.1171 22.559 16.1772 22.615 16.2194 22.6837C17.4218 24.3325 18.6299 25.9827 19.8437 27.6343C19.9092 27.7241 19.9762 27.811 20.0745 27.9406Z" fill="#10352B"/>
</g>
<defs>
<clipPath id="clip0_1733_55454">
<rect width="153.75" height="40" fill="white"/>
</clipPath>
<clipPath id="clip1_1733_55454">
<rect width="113.75" height="40" fill="white" transform="translate(42.5)"/>
</clipPath>
</defs>
</svg>
