<svg width="24" height="24" viewBox="0 0 24 24" fill="none" xmlns="http://www.w3.org/2000/svg">
<path fill-rule="evenodd" clip-rule="evenodd" d="M16.6667 11.3337H12.6667V7.33366C12.6667 6.96499 12.3681 6.66699 12.0001 6.66699C11.6321 6.66699 11.3334 6.96499 11.3334 7.33366V11.3337H7.33341C6.96541 11.3337 6.66675 11.6317 6.66675 12.0003C6.66675 12.369 6.96541 12.667 7.33341 12.667H11.3334V16.667C11.3334 17.0357 11.6321 17.3337 12.0001 17.3337C12.3681 17.3337 12.6667 17.0357 12.6667 16.667V12.667H16.6667C17.0347 12.667 17.3334 12.369 17.3334 12.0003C17.3334 11.6317 17.0347 11.3337 16.6667 11.3337" fill="#4E903C"/>
<rect x="0.75" y="0.75" width="22.5" height="22.5" rx="11.25" stroke="#4E903C" stroke-width="1.5"/>
</svg>
