<svg width="80" height="80" viewBox="0 0 80 80" fill="none" xmlns="http://www.w3.org/2000/svg">
<path fill-rule="evenodd" clip-rule="evenodd" d="M69.99 36.5803H70C71.8367 36.5803 73.33 38.067 73.3333 39.9037C73.36 48.807 69.9167 57.1903 63.6367 63.5037C57.36 69.817 49 73.307 40.0967 73.3337H40C31.13 73.3337 22.7867 69.8937 16.4967 63.637C10.1833 57.3603 6.69332 49.0003 6.66666 40.097C6.63999 31.1903 10.0833 22.8103 16.3633 16.497C22.64 10.1837 31 6.69366 39.9033 6.66699C42.5533 6.70699 45.2533 6.97366 47.84 7.59366C49.6267 8.02699 50.73 9.82699 50.2967 11.617C49.8667 13.4037 48.0567 14.5037 46.2767 14.077C44.2067 13.577 42.01 13.367 39.9233 13.3337C32.8 13.3537 26.11 16.147 21.09 21.197C16.0667 26.247 13.3133 32.9537 13.3333 40.077C13.3533 47.2003 16.1467 53.887 21.1967 58.9103C26.23 63.9137 32.9033 66.667 40 66.667H40.0767C47.2 66.647 53.89 63.8537 58.91 58.8037C63.9333 53.7503 66.6867 47.047 66.6667 39.9237C66.6633 38.0837 68.15 36.5837 69.99 36.5803ZM27.6433 37.6433C28.9467 36.34 31.0533 36.34 32.3567 37.6433L39.8367 45.1233L60.8267 21.1367C62.04 19.76 64.1433 19.6133 65.53 20.8267C66.9133 22.0367 67.0533 24.1433 65.84 25.53L42.5067 52.1967C41.9 52.89 41.0333 53.3 40.11 53.3333H40C39.1167 53.3333 38.27 52.9833 37.6433 52.3567L27.6433 42.3567C26.34 41.0533 26.34 38.9467 27.6433 37.6433Z" fill="#F9A31B"/>
</svg>
