<svg width="24" height="24" viewBox="0 0 24 24" fill="none" xmlns="http://www.w3.org/2000/svg">
<g clip-path="url(#clip0_2587_35206)">
<path d="M6.82203 7.09524L4.93022 1.4961H0.03125V0H6.00404L8.23921 6.61611L6.82203 7.09524Z" fill="#4E903C"/>
<path opacity="0.4" d="M3.19336 5.83887H23.9693L20.0091 16.9496H6.65308L3.19336 5.83887Z" fill="#4E903C"/>
<path d="M17.678 24.0005C19.2692 24.0005 20.5591 22.7106 20.5591 21.1194C20.5591 19.5282 19.2692 18.2383 17.678 18.2383C16.0868 18.2383 14.7969 19.5282 14.7969 21.1194C14.7969 22.7106 16.0868 24.0005 17.678 24.0005Z" fill="#4E903C"/>
<path d="M8.98853 24.0005C10.5797 24.0005 11.8696 22.7106 11.8696 21.1194C11.8696 19.5282 10.5797 18.2383 8.98853 18.2383C7.39734 18.2383 6.10742 19.5282 6.10742 21.1194C6.10742 22.7106 7.39734 24.0005 8.98853 24.0005Z" fill="#4E903C"/>
</g>
<defs>
<clipPath id="clip0_2587_35206">
<rect width="24" height="24" fill="white"/>
</clipPath>
</defs>
</svg>
