<svg width="24" height="24" viewBox="0 0 24 24" fill="none" xmlns="http://www.w3.org/2000/svg">
<g clip-path="url(#clip0_2587_35191)">
<path opacity="0.4" d="M21.3759 0C20.8555 0 20.0909 0.69337 19.7806 0.993205L19.0324 1.72712C18.9045 1.85074 18.7348 1.91879 18.5503 1.91879C18.3656 1.91879 18.1949 1.85074 18.0673 1.72756L17.3078 0.991452C16.7977 0.498849 15.9527 0 15.3236 0C14.6942 0 13.8488 0.498849 13.3389 0.991562L12.5777 1.72723C12.4498 1.85085 12.2772 1.9189 12.0917 1.9189C11.9061 1.9189 11.7335 1.85085 11.6056 1.72723L10.8442 0.991562C10.3467 0.510795 9.4818 0 8.85889 0C8.23599 0 7.37111 0.510795 6.87358 0.991562L6.11237 1.72723C5.98437 1.85085 5.81177 1.9189 5.62613 1.9189C5.44059 1.9189 5.26788 1.85085 5.13988 1.72723L4.37856 0.991562C4.33648 0.951123 3.32706 0 2.71632 0C2.01933 0 1.75391 0.944548 1.75391 1.75342V22.2466C1.75391 23.0555 2.01933 24 2.71632 24C3.30339 24 4.25056 23.1099 4.35391 23.0102L5.12859 22.2728C5.25648 22.1492 5.43204 22.0811 5.61878 22.0811C5.80541 22.0811 5.97988 22.1492 6.10821 22.2732L6.87139 23.0084C7.36881 23.4891 8.23423 24 8.8578 24C9.48114 24 10.3462 23.4891 10.8435 23.0085L11.6054 22.2728C11.7333 22.1492 11.906 22.0811 12.0917 22.0811C12.2773 22.0811 12.45 22.1492 12.578 22.2728L13.3393 23.0084C13.8368 23.4891 14.7016 24 15.3246 24C15.9477 24 16.8125 23.4891 17.31 23.0084L18.0714 22.2728C18.1993 22.1492 18.3719 22.0811 18.5576 22.0811C18.7432 22.0811 18.9159 22.1492 19.0438 22.2728L19.8052 23.0084C20.1884 23.3787 20.8862 24 21.3759 24C21.9494 24 22.2471 23.3772 22.2471 22.2466V1.75342C22.2471 0.622795 21.9495 0 21.3759 0ZM17.7539 18.0274H12.7128V15.9452H17.7539V18.0274ZM17.7539 12.9863H6.35665V11.0137H17.7539V12.9863ZM17.7539 8.0548H6.35665V5.9726H17.7539V8.0548Z" fill="#4E903C"/>
<path d="M17.7547 18.0275H12.7136V15.9453H17.7547V18.0275ZM17.7547 12.9864H6.35742V11.0138H17.7547V12.9864ZM17.7547 8.05485H6.35742V5.97266H17.7547V8.05485Z" fill="#4E903C"/>
</g>
<defs>
<clipPath id="clip0_2587_35191">
<rect width="24" height="24" fill="white"/>
</clipPath>
</defs>
</svg>
