<svg width="129" height="129" viewBox="0 0 129 129" fill="none" xmlns="http://www.w3.org/2000/svg">
<circle cx="64.5" cy="64.5" r="64.5" fill="#FDEBCF" fill-opacity="0.2"/>
<path fill-rule="evenodd" clip-rule="evenodd" d="M66.8682 82.5002C66.1177 71.0989 56.6322 62.0835 45.041 62.0835C43.5427 62.0835 42.0796 62.2341 40.666 62.5211V50.4168C40.666 47.1952 43.2777 44.5835 46.4993 44.5835H87.3327C90.5543 44.5835 93.166 47.1952 93.166 50.4168V76.6668C93.166 79.8885 90.5543 82.5002 87.3327 82.5002H66.8682ZM84.8373 49.9491L66.916 59.599L48.9948 49.9491C47.9311 49.3764 46.6044 49.7744 46.0317 50.8381C45.4589 51.9018 45.8569 53.2284 46.9206 53.8012L65.8789 64.0095C66.5264 64.3582 67.3057 64.3582 67.9531 64.0095L86.9114 53.8012C87.9752 53.2284 88.3732 51.9018 87.8004 50.8381C87.2276 49.7744 85.901 49.3764 84.8373 49.9491Z" fill="#F9A31B"/>
<path opacity="0.3" fill-rule="evenodd" clip-rule="evenodd" d="M52.334 79.5835C53.9448 79.5835 55.2507 80.8893 55.2507 82.5002V91.2502C55.2507 92.861 53.9448 94.1668 52.334 94.1668H37.7507C36.1398 94.1668 34.834 92.861 34.834 91.2502V82.5002C34.834 80.8893 36.1398 79.5835 37.7507 79.5835V78.1252C37.7507 74.0981 41.0152 70.8335 45.0423 70.8335C49.0694 70.8335 52.334 74.0981 52.334 78.1252V79.5835ZM45.0423 73.7502C42.6261 73.7502 40.6673 75.7089 40.6673 78.1252V79.5835H49.4173V78.1252C49.4173 75.7089 47.4586 73.7502 45.0423 73.7502Z" fill="#F9A31B"/>
</svg>
