<svg width="20" height="21" viewBox="0 0 20 21" fill="none" xmlns="http://www.w3.org/2000/svg">
<g clip-path="url(#clip0_1752_55472)">
<path d="M20 10.0781C20 4.55527 15.5229 0.078125 10 0.078125C4.47715 0.078125 0 4.55527 0 10.0781C0 15.0693 3.65684 19.2064 8.4375 19.9566V12.9688H5.89844V10.0781H8.4375V7.875C8.4375 5.36875 9.93047 3.98438 12.2146 3.98438C13.3084 3.98438 14.4531 4.17969 14.4531 4.17969V6.64063H13.1922C11.95 6.64063 11.5625 7.41152 11.5625 8.20312V10.0781H14.3359L13.8926 12.9688H11.5625V19.9566C16.3432 19.2064 20 15.0693 20 10.0781Z" fill="#1877F2"/>
<path d="M13.8926 12.9688L14.3359 10.0781H11.5625V8.20312C11.5625 7.4123 11.95 6.64062 13.1922 6.64062H14.4531V4.17969C14.4531 4.17969 13.3088 3.98438 12.2146 3.98438C9.93047 3.98438 8.4375 5.36875 8.4375 7.875V10.0781H5.89844V12.9688H8.4375V19.9566C9.47287 20.1186 10.5271 20.1186 11.5625 19.9566V12.9688H13.8926Z" fill="white"/>
</g>
<defs>
<clipPath id="clip0_1752_55472">
<rect width="20" height="20" fill="white" transform="translate(0 0.078125)"/>
</clipPath>
</defs>
</svg>
