<svg width="20" height="21" viewBox="0 0 20 21" fill="none" xmlns="http://www.w3.org/2000/svg">
<g clip-path="url(#clip0_1752_55461)">
<path d="M19.8052 10.3083C19.8052 9.62856 19.7501 8.94512 19.6325 8.27637H10.2002V12.1272H15.6016C15.3775 13.3691 14.6573 14.4678 13.6027 15.1659V17.6646H16.8252C18.7176 15.9229 19.8052 13.3508 19.8052 10.3083Z" fill="#4285F4"/>
<path d="M10.1999 20.0789C12.897 20.0789 15.1714 19.1934 16.8286 17.6648L13.6061 15.1662C12.7096 15.7761 11.5521 16.1215 10.2036 16.1215C7.59474 16.1215 5.38272 14.3615 4.58904 11.9951H1.26367V14.5709C2.96127 17.9477 6.41892 20.0789 10.1999 20.0789Z" fill="#34A853"/>
<path d="M4.58564 11.9954C4.16676 10.7534 4.16676 9.40857 4.58564 8.16661V5.59082H1.26395C-0.154389 8.41647 -0.154389 11.7455 1.26395 14.5712L4.58564 11.9954Z" fill="#FBBC04"/>
<path d="M10.1999 4.03618C11.6256 4.01413 13.0035 4.5506 14.036 5.53535L16.8911 2.68031C15.0833 0.982712 12.6838 0.0494033 10.1999 0.0787989C6.41892 0.0787989 2.96126 2.20998 1.26367 5.59047L4.58537 8.16625C5.37537 5.79623 7.59106 4.03618 10.1999 4.03618Z" fill="#EA4335"/>
</g>
<defs>
<clipPath id="clip0_1752_55461">
<rect width="20" height="20" fill="white" transform="translate(0 0.078125)"/>
</clipPath>
</defs>
</svg>
