<svg width="20" height="20" viewBox="0 0 20 20" fill="none" xmlns="http://www.w3.org/2000/svg">
<path fill-rule="evenodd" clip-rule="evenodd" d="M14.1162 2.5C15.2337 2.5 16.3087 2.94167 17.0995 3.73417C17.8912 4.525 18.3337 5.59167 18.3337 6.70833V13.2917C18.3337 15.6167 16.442 17.5 14.1162 17.5H5.88366C3.55783 17.5 1.66699 15.6167 1.66699 13.2917V6.70833C1.66699 4.38333 3.54949 2.5 5.88366 2.5H14.1162ZM15.4419 7.94987L15.5086 7.8832C15.7078 7.64153 15.7078 7.29153 15.4994 7.04987C15.3836 6.9257 15.2244 6.84987 15.0586 6.8332C14.8836 6.82403 14.7169 6.8832 14.5911 6.99987L10.8336 9.99987C10.3503 10.4007 9.65777 10.4007 9.16693 9.99987L5.41693 6.99987C5.15777 6.8082 4.79943 6.8332 4.5836 7.0582C4.3586 7.2832 4.3336 7.64153 4.52443 7.89153L4.6336 7.99987L8.42527 10.9582C8.89193 11.3249 9.45777 11.5249 10.0503 11.5249C10.6411 11.5249 11.2169 11.3249 11.6828 10.9582L15.4419 7.94987Z" fill="#4E903C"/>
</svg>
