<svg width="24" height="24" viewBox="0 0 24 24" fill="none" xmlns="http://www.w3.org/2000/svg">
<path opacity="0.4" d="M12.5357 9.53571H1.82143C1.23214 9.53571 0.75 10.0179 0.75 10.6071C0.75 11.1964 1.23214 11.6786 1.82143 11.6786H12.5357C13.125 11.6786 13.6071 11.1964 13.6071 10.6071C13.6071 10.0179 13.125 9.53571 12.5357 9.53571ZM12.5357 5.25H1.82143C1.23214 5.25 0.75 5.73214 0.75 6.32143C0.75 6.91071 1.23214 7.39286 1.82143 7.39286H12.5357C13.125 7.39286 13.6071 6.91071 13.6071 6.32143C13.6071 5.73214 13.125 5.25 12.5357 5.25ZM1.82143 15.9643H8.25C8.83929 15.9643 9.32143 15.4821 9.32143 14.8929C9.32143 14.3036 8.83929 13.8214 8.25 13.8214H1.82143C1.23214 13.8214 0.75 14.3036 0.75 14.8929C0.75 15.4821 1.23214 15.9643 1.82143 15.9643Z" fill="#4E903C"/>
<path d="M17.6786 14.0357V10.8214C17.6786 10.2321 17.1964 9.75 16.6071 9.75C16.0179 9.75 15.5357 10.2321 15.5357 10.8214V14.0357H12.3214C11.7321 14.0357 11.25 14.5179 11.25 15.1071C11.25 15.6964 11.7321 16.1786 12.3214 16.1786H15.5357V19.3929C15.5357 19.9821 16.0179 20.4643 16.6071 20.4643C17.1964 20.4643 17.6786 19.9821 17.6786 19.3929V16.1786H20.8929C21.4821 16.1786 21.9643 15.6964 21.9643 15.1071C21.9643 14.5179 21.4821 14.0357 20.8929 14.0357H17.6786Z" fill="#4E903C"/>
</svg>
