<svg width="32" height="32" viewBox="0 0 32 32" fill="none" xmlns="http://www.w3.org/2000/svg">
<circle cx="16" cy="16" r="16" fill="#F3FAF2"/>
<path fill-rule="evenodd" clip-rule="evenodd" d="M15.84 16.2916C15.0929 16.2916 14.485 16.8996 14.485 17.6466C14.485 18.3937 15.0929 19.0016 15.84 19.0016C16.587 19.0016 17.195 18.3937 17.195 17.6466C17.195 16.8996 16.587 16.2916 15.84 16.2916ZM15.84 20.8083C14.0965 20.8083 12.6783 19.3901 12.6783 17.6466C12.6783 15.9032 14.0965 14.485 15.84 14.485C17.5834 14.485 19.0016 15.9032 19.0016 17.6466C19.0016 19.3901 17.5834 20.8083 15.84 20.8083ZM14.0333 9.96829C14.0333 9.71897 14.2366 9.51663 14.485 9.51663H17.195C17.4434 9.51663 17.6466 9.71897 17.6466 9.96829V11.3233H14.0333V9.96829ZM22.1633 11.3233H19.4533V9.96829C19.4533 8.7235 18.4407 7.70996 17.195 7.70996H14.485C13.2393 7.70996 12.2266 8.7235 12.2266 9.96829V11.3233H9.51664C8.02253 11.3233 6.80664 12.5392 6.80664 14.0333V21.26C6.80664 22.7541 8.02253 23.97 9.51664 23.97H22.1633C23.6574 23.97 24.8733 22.7541 24.8733 21.26V14.0333C24.8733 12.5392 23.6574 11.3233 22.1633 11.3233Z" fill="#4E903C"/>
</svg>
