<svg width="24" height="24" viewBox="0 0 24 24" fill="none" xmlns="http://www.w3.org/2000/svg">
<path fill-rule="evenodd" clip-rule="evenodd" d="M4.40468 11.622C5.52068 12.005 6.40968 12.939 6.78168 14.123L6.82168 14.243C7.24768 15.499 7.07468 16.851 6.36068 17.865C6.23068 18.049 6.25968 18.269 6.39668 18.373L8.46868 19.947C8.54168 20.002 8.61268 20.002 8.65668 19.997C8.70668 19.989 8.77968 19.962 8.83868 19.878L9.06968 19.55C9.75868 18.573 10.8687 17.97 12.0407 17.936C13.3567 17.909 14.5387 18.512 15.2747 19.575L15.3927 19.746C15.4517 19.83 15.5237 19.858 15.5747 19.866C15.6187 19.875 15.6907 19.872 15.7627 19.816L17.8237 18.261C17.9677 18.153 17.9997 17.922 17.8927 17.767L17.6327 17.392C16.9627 16.424 16.7637 15.168 17.1007 14.033C17.4667 12.797 18.3977 11.819 19.5927 11.419L19.7937 11.351C19.9547 11.298 20.0417 11.098 19.9847 10.914L19.1977 8.393C19.1607 8.275 19.0847 8.222 19.0427 8.2C18.9827 8.169 18.9177 8.164 18.8557 8.185L18.5157 8.298C17.3527 8.685 16.0697 8.475 15.0847 7.734L14.9767 7.653C14.0407 6.949 13.4837 5.814 13.4877 4.618L13.4897 4.338C13.4897 4.205 13.4267 4.122 13.3887 4.084C13.3527 4.047 13.2917 4.003 13.2057 4.003L10.6587 4C10.5027 4 10.3757 4.149 10.3747 4.333L10.3737 4.575C10.3687 5.79 9.79968 6.946 8.85168 7.669L8.72268 7.767C7.67968 8.56 6.31968 8.784 5.08768 8.364C5.04068 8.348 4.99668 8.351 4.95468 8.373C4.92268 8.389 4.86468 8.43 4.83668 8.521L4.01968 11.117C3.96068 11.306 4.05768 11.503 4.24068 11.566L4.40468 11.622ZM8.61558 22C8.12958 22 7.65758 21.842 7.25958 21.539L5.18758 19.966C4.19758 19.216 3.97858 17.773 4.69858 16.75C5.07258 16.22 5.14958 15.539 4.92958 14.893L4.87458 14.725C4.69158 14.143 4.27358 13.691 3.75658 13.514H3.75558L3.59258 13.457C2.37458 13.04 1.72458 11.749 2.11158 10.517L2.92758 7.922C3.11258 7.335 3.51158 6.861 4.05158 6.588C4.57958 6.322 5.17658 6.281 5.73458 6.472C6.33358 6.676 6.99858 6.565 7.51158 6.175L7.64058 6.077C8.09658 5.729 8.37158 5.164 8.37358 4.567L8.37458 4.326C8.37958 3.042 9.40458 2 10.6576 2H10.6616L13.2086 2.003C13.8106 2.004 14.3786 2.242 14.8066 2.673C15.2496 3.118 15.4916 3.713 15.4896 4.348L15.4876 4.627C15.4856 5.193 15.7446 5.728 16.1816 6.056L16.2886 6.137C16.7476 6.482 17.3456 6.581 17.8826 6.401L18.2216 6.288C18.7986 6.096 19.4126 6.143 19.9536 6.42C20.5086 6.704 20.9186 7.193 21.1066 7.798L21.8936 10.319C22.2736 11.537 21.6156 12.851 20.4286 13.248L20.2276 13.315C19.6516 13.509 19.1986 13.989 19.0176 14.601C18.8516 15.162 18.9476 15.779 19.2766 16.253L19.5366 16.628C20.2506 17.66 20.0226 19.108 19.0286 19.857L16.9676 21.413C16.4726 21.787 15.8656 21.938 15.2566 21.841C14.6426 21.742 14.1066 21.402 13.7476 20.884L13.6296 20.712C13.2796 20.208 12.7196 19.902 12.1326 19.935C11.5446 19.951 11.0366 20.23 10.7046 20.702L10.4736 21.03C10.1116 21.543 9.57458 21.878 8.96358 21.974C8.84658 21.992 8.73058 22 8.61558 22ZM12.002 10.5C11.175 10.5 10.502 11.173 10.502 12C10.502 12.827 11.175 13.5 12.002 13.5C12.829 13.5 13.502 12.827 13.502 12C13.502 11.173 12.829 10.5 12.002 10.5ZM12.002 15.5C10.072 15.5 8.50195 13.93 8.50195 12C8.50195 10.07 10.072 8.5 12.002 8.5C13.932 8.5 15.502 10.07 15.502 12C15.502 13.93 13.932 15.5 12.002 15.5Z" fill="#636366"/>
</svg>
